@startuml
'skinparam monochrome true
skinparam packageStyle rectangle
skinparam shadowing false
skinparam linetype polyline
'skinparam linetype orto

skinparam classAttributeIconSize 0

'left to right direction

class "ListingController" as ctrl{


    +ListingController(announcementRepository)
    + getPropertyList()



}

class AnnouncementRepository {
    + getPropertyList(business, type, rooms)
    + sortByPriceAsc(PropertyList)
    + sortByPriceDesc(PropertyList)
    + sortByPriceParish(PropertyList)
    + sortByRecent(PropertyList)
}

class Property {
    -Int id
    -String type
    -String location
    -Int area
    -Int distanceCenter
    -String description
    -photograph
    -Owner owner

    + isType(type)
    +numberRooms(rooms)
}

class Apartment {
    -Int numberRooms
    -Int numberBathrooms
    -Int numberParking
    -String equipment

    + numberRooms(rooms)
}


class House {
    -Int numberRooms
    -Int numberBathrooms
    -Int numberParking
    -String equipment
    -basement
    -loft
    -sunExposure

    + numberRooms(rooms)
}


class Land {

}

class Announcement {
    -Int id
    -Date date
    -Double comission
    -Double price
    -Property PropertyList
    -Agent agent
    + filterProperty(business, type, rooms)
    +isBusiness(business)
}

class SearchUI {
}

class Repositories {
    - Repositories()
    + getInstance() : Repositories
    + getAnnouncementRepository()
}

class "Unregistered user" as UU {


}


SearchUI .> ctrl

ctrl .> AnnouncementRepository
ctrl .-> Repositories
ctrl .-> Property

class Apartment extends Property
class House extends Property
class Land extends Property


Repositories -> Repositories : instance

AnnouncementRepository --> Announcement : Announcement
Announcement --> Property : is about

Announcement --> UU : is view by

@enduml