@startuml
'skinparam monochrome true
skinparam packageStyle rectangle
skinparam shadowing false
skinparam linetype polyline
'skinparam linetype orto

skinparam classAttributeIconSize 0

'left to right direction

class "AnnouncementController" as ctrl{
    +getAnnouncementList(business,type,rooms)
    +getAnnouncementListOrdered(type)
    +getAnnouncementById(id)
    +createOrder(announcementDTO,value,date)

}

class Repositories {
    - Repositories()
    + getInstance() : Repositories
    + getAnnouncementRepository()
}

class AnnouncementRepository {
    + getAnnouncementList(business, type, rooms)

}

class AnnouncementAvailable{
    +filterAnnouncementAvailable(business,type,rooms)
}


class "ApplicationSession" as appSession {
    +getInstance()
    +getCurrentSession()

}

class Property {
    -Int id
    -String type
    -String location
    -Int area
    -Int distanceCenter
    -String description
    -photograph
    -Owner owner

    + isType(type)
}

class Apartment {
    -Int numberRooms
    -Int numberBathrooms
    -Int numberParking
    -String equipment

    + numberRooms(rooms)
}


class House {
    -Int numberRooms
    -Int numberBathrooms
    -Int numberParking
    -String equipment
    -basement
    -loft
    -sunExposure

    + numberRooms(rooms)
}


class Land {

}

class "UserSession" as userSession {
    +getClientEmail()

}




class AnnouncementAvailable {
    -Int id
    -Date date
    -Double comission
    -Double price
    -Property Property
    -Agent agent
    -List<Order> Order
    + filterAnnouncementAvailable(business, type, rooms)
    +addOrder(order)
    +isValueHigherThanPrice()
    +isAnotherOrderByClient()
    +isAnotherOrderWithSameValue()
    +create(announcementAvailable, Order)

}

class SearchUI {
}



class order{
    -clientEmail
    -value
    +createOrder(clientEmail,value)

}

class AnnouncementDTO{
    -Int id
    -Date date
    -Double comission
    -Double price
    -Property Property
    -Agent agent
    -List<Order> Order
    }

    class AnnouncementMapper{
        +toDto(ListAnnouncementAvailable)
        +toDto(AnnouncementAvailable)
        }

SearchUI .> ctrl

ctrl .-> AnnouncementRepository
ctrl .-> Repositories
ctrl .-> Property
ctrl .-> appSession
ctrl .-> AnnouncementAvailable
ctrl .-> userSession
ctrl .-> AnnouncementMapper
ctrl .-> AnnouncementDTO
SearchUI .> AnnouncementDTO


class Apartment extends Property
class House extends Property
class Land extends Property


Repositories -> Repositories : instance

AnnouncementRepository "1"-->"*" AnnouncementAvailable : AnnouncementAvailable
AnnouncementAvailable "1" --> "1" Property : is about

AnnouncementAvailable "1" --> "*" order : contains
appSession -> userSession : userSession

AnnouncementMapper .-> AnnouncementAvailable
AnnouncementMapper .-> AnnouncementDTO



@enduml