@startuml
'skinparam monochrome true
skinparam packageStyle rectangle
skinparam shadowing false
skinparam linetype polyline
'skinparam linetype orto

skinparam classAttributeIconSize 0

'left to right direction

class "AnnouncementController" as ctrl{
    +createAnnouncementController()
    +getScheduleVisits
    +counterPurpose(AnnouncementDTO,VisitRequestDTO)
    +acceptVisiRequest(AnnouncementDTO,VisitRequestDTO,timeSlot)
    +rejectVisitRequest(AnnouncementDTO,VisitRequestDTO,timeSlot)

}
class "AuthenticationRepository" as repo {

    +getCurrentUserSession()

}
class "UserSession" as userSession{
    +getUserId()
}

class "AuthenticationFacade" as facade {
    +isLoggedIn()
}

class "AnnouncementRepository" as repo2  {
    +getAnnouncementWithVisitRequestsForOwnerByID(userId)
    +acceptVisitRequestMethod(AnnouncementDTO,VisitRequestDTO,timeSlot)
    +rejectVisitRequestMethod(AnnouncementDTO,VisitRequestDTO,timeSlot)
    +counterPurposeVisitRequestMethod(AnnouncementDTO,VisitRequestDTO,timeSlot)
}

class "AnnouncementAvailable" as announcement {
    -Int id
    -Date date
    -Double comission
    -Double price
    -Property PropertyList
    -Agent agent
    -List<VisitRequest>
    +createVisitRequest(visitRequestDTO)
    +addVisitRequest(visitRequest)
    -validateVisitRequest(visitRequest)
}

class "CheckScheduleVisitUI" as UI{
}

class Repositories {
    - Repositories()
    + getInstance() : Repositories
    + getAnnouncementRepository()
    + getAuthenticationRepository()
}
class "VisitRequest" as vr{
        - String date;
        - String status;
        - AgentDTO agentDTO;
        - List<String> timeSlot;
        - String userName;
        - String email;
        }
class "VisitRequestDTO" as vrDTO{
        - String date;
        - String status;
        - AgentDTO agentDTO;
        - List<String> timeSlot;
        - String userName;
        - String email;

}

class "AnnouncementMapper" as aMapper{
    +toDto(ListAnnouncementAvailable)
    +toDto(AnnouncementAvailable)
}
class "AnnouncementDTO" as aDTO{
private int id;
    - double comission;
    - double price;
    - Date date;
    - String businessType;
    - PropertyDTO property;
    - List<VisitRequestDTO> visitRequestList = new ArrayList<>();
    - AgentDTO agent;
    - List<OrderDTO> orderList = new ArrayList<>();
    - Integer contractDuration;
    - Double salePrice;
    - Date saleDate;
    - AgencyDTO agency;

}
UI .> ctrl

ctrl .-> repo2
ctrl .-> repo
ctrl .-> Repositories
ctrl .-> announcement
ctrl .-> userSession
ctrl .-> aMapper
ctrl .-> aDTO
UI .> aDTO
repo .> userSession
repo .> facade
userSession .> facade
vr .> vrDTO
UI .> vrDTO
Repositories -> Repositories : instance
 vrDTO o-- aDTO
repo2 "1"-->"*" announcement

announcement "1" o-- "*" vr : contains


aMapper .-> announcement
aMapper .-> aDTO



@enduml