@startuml
'skinparam monochrome true
skinparam packageStyle rectangle
skinparam shadowing false
skinparam linetype polyline
'skinparam linetype orto

skinparam classAttributeIconSize 0

'left to right direction

class "AnnouncementController" as ctrl{
    getListingSoldDTO()



}

class Repositories {
    - Repositories()
    + getInstance() : Repositories
    + getAnnouncementRepository()
}







class "ApplicationSession" as appSession {
    +getInstance()
    +getCurrentSession()

}







class "UserSession" as userSession {
    +getEmail()

}





class AnnouncementSold {
    -Int id
    -Date date
    -Double comission
    -Double price
    -Property Property
    -Agent agent
    -List<Order> Order

}
class NetworkManager{
isNetworkManager()
}

class DoneDealsListUI {
}





class AnnouncementDTO{
    -Int id
    -Date date
    -Double comission
    -Double price
    -Property Property
    -Agent agent
    -List<Order> Order
    }



    class AnnouncementMapper{
        +toDto(ListAnnouncementSold)
        +toDto(AnnouncementSold)
        }



DoneDealsListUI .> ctrl

ctrl .-> AnnouncementRepository
ctrl .-> Repositories
ctrl .-> appSession
ctrl .-> AnnouncementSold
ctrl .-> userSession
ctrl .-> AnnouncementMapper
ctrl .-> AnnouncementDTO
DoneDealsListUI .> AnnouncementDTO



Repositories -> Repositories : instance

AnnouncementRepository "1"-->"*" AnnouncementSold : AnnouncementSold

appSession -> userSession : userSession

AnnouncementMapper .-> AnnouncementSold
AnnouncementMapper .-> AnnouncementDTO




UserSession "1" --> "*" NetworkManager : gets  Network Manager email

ctrl.> UserSession









@enduml